<svg width="512" height="512" viewBox="0 0 512 512" fill="none" xmlns="http://www.w3.org/2000/svg">
<path fill-rule="evenodd" clip-rule="evenodd" d="M379.069 318.085C380.471 318.085 381.685 317.114 381.995 315.748L387.089 293.277L391.719 272.438L404.949 214.68C405.143 213.832 405.897 213.231 406.767 213.231C407.639 213.231 408.394 213.834 408.587 214.685L421.654 272.438L426.45 293.277L431.543 315.748C431.853 317.114 433.068 318.085 434.469 318.085H451.096C453.035 318.085 454.464 316.274 454.014 314.388L427.827 204.619C427.504 203.268 426.297 202.315 424.909 202.315H388.63C387.241 202.315 386.034 203.268 385.712 204.619L359.524 314.388C359.074 316.274 360.504 318.085 362.442 318.085H379.069Z" fill="#FBFBFB"/>
<path d="M325.35 237.708C325.35 233.077 323.53 229.053 319.892 225.635C316.364 222.217 311.347 220.508 304.842 220.508C299.329 220.508 294.974 221.665 291.777 223.981C288.579 226.186 286.98 229.218 286.98 233.077C286.98 235.062 287.366 236.881 288.138 238.535C288.91 240.078 290.233 241.512 292.107 242.835C294.092 244.047 296.628 245.15 299.715 246.142C302.912 247.135 306.937 248.072 311.788 248.954C323.916 251.159 333.178 254.853 339.573 260.035C345.968 265.217 349.165 272.879 349.165 283.023V285.008C349.165 290.41 348.173 295.317 346.188 299.727C344.314 304.027 341.557 307.721 337.919 310.808C334.28 313.895 329.87 316.265 324.688 317.919C319.506 319.573 313.662 320.4 307.157 320.4C299.55 320.4 292.824 319.353 286.98 317.258C281.247 315.053 276.451 312.076 272.592 308.327C268.733 304.468 265.811 300.003 263.827 294.931C261.842 289.749 260.85 284.126 260.85 278.062V276.1C260.85 274.443 262.193 273.1 263.85 273.1H279.68C281.337 273.1 282.68 274.443 282.68 276.1V277.069C282.68 284.015 284.665 289.583 288.634 293.773C292.714 297.853 298.998 299.892 307.488 299.892C314.104 299.892 319.01 298.459 322.207 295.592C325.405 292.726 327.004 289.308 327.004 285.338C327.004 283.464 326.673 281.7 326.011 280.046C325.35 278.282 324.192 276.738 322.538 275.415C320.884 273.982 318.624 272.714 315.757 271.612C312.891 270.509 309.252 269.572 304.842 268.8C298.998 267.808 293.651 266.54 288.8 264.996C283.948 263.342 279.704 261.192 276.065 258.546C272.537 255.9 269.78 252.592 267.796 248.623C265.811 244.654 264.819 239.803 264.819 234.069V233.077C264.819 228.336 265.756 223.981 267.63 220.012C269.615 215.932 272.316 212.404 275.734 209.427C279.263 206.45 283.452 204.135 288.304 202.481C293.265 200.827 298.778 200 304.842 200C311.678 200 317.742 200.992 323.034 202.977C328.327 204.851 332.737 207.442 336.265 210.75C339.904 214.058 342.605 217.862 344.369 222.162C346.243 226.462 347.18 230.982 347.18 235.723V238.677C347.18 240.334 345.837 241.677 344.18 241.677H328.35C326.693 241.677 325.35 240.334 325.35 238.677V237.708Z" fill="#FBFBFB"/>
<path fill-rule="evenodd" clip-rule="evenodd" d="M176.538 318.085C177.939 318.085 179.154 317.114 179.464 315.748L184.557 293.277L189.188 272.438L202.417 214.68C202.612 213.832 203.366 213.231 204.236 213.231C205.107 213.231 205.863 213.834 206.055 214.685L219.122 272.438L223.919 293.277L229.012 315.748C229.322 317.114 230.536 318.085 231.938 318.085H248.565C250.503 318.085 251.933 316.274 251.483 314.388L225.295 204.619C224.973 203.268 223.766 202.315 222.377 202.315H186.099C184.71 202.315 183.503 203.268 183.18 204.619L156.993 314.388C156.543 316.274 157.972 318.085 159.911 318.085H176.538Z" fill="#FBFBFB"/>
<path d="M118.505 305.788C118.607 306.578 119.28 307.169 120.076 307.169C120.951 307.169 121.66 306.46 121.66 305.585V205.315C121.66 203.659 123.004 202.315 124.66 202.315H140.491C142.148 202.315 143.491 203.659 143.491 205.315V315.085C143.491 316.741 142.148 318.085 140.491 318.085H103.459C101.951 318.085 100.677 316.965 100.484 315.469L87.4391 214.612C87.3369 213.822 86.6643 213.231 85.8678 213.231C84.9929 213.231 84.2835 213.94 84.2835 214.815V315.085C84.2835 316.741 82.9404 318.085 81.2835 318.085H65.4528C63.7959 318.085 62.4528 316.741 62.4528 315.085V205.315C62.4528 203.659 63.7959 202.315 65.4528 202.315H102.485C103.993 202.315 105.267 203.435 105.46 204.931L118.505 305.788Z" fill="#FBFBFB"/>
</svg>
