<svg width="512" height="512" viewBox="0 0 512 512" fill="none" xmlns="http://www.w3.org/2000/svg">
<path fill-rule="evenodd" clip-rule="evenodd" d="M376.617 314.085C378.018 314.085 379.233 313.114 379.542 311.748L384.636 289.277L389.267 268.438L402.496 210.68C402.69 209.832 403.445 209.231 404.315 209.231C405.186 209.231 405.942 209.834 406.134 210.685L419.201 268.438L423.997 289.277L429.091 311.748C429.4 313.114 430.615 314.085 432.017 314.085H448.644C450.582 314.085 452.012 312.274 451.562 310.388L425.374 200.619C425.052 199.268 423.844 198.315 422.456 198.315H386.177C384.789 198.315 383.581 199.268 383.259 200.619L357.071 310.388C356.622 312.274 358.051 314.085 359.99 314.085H376.617Z" fill="#FBFBFB"/>
<path d="M322.897 233.708C322.897 229.077 321.078 225.053 317.439 221.635C313.911 218.217 308.894 216.508 302.389 216.508C296.876 216.508 292.521 217.665 289.324 219.981C286.126 222.186 284.528 225.218 284.528 229.077C284.528 231.062 284.914 232.881 285.685 234.535C286.457 236.078 287.78 237.512 289.655 238.835C291.639 240.047 294.175 241.15 297.262 242.142C300.46 243.135 304.484 244.072 309.335 244.954C321.464 247.159 330.725 250.853 337.12 256.035C343.515 261.217 346.712 268.879 346.712 279.023V281.008C346.712 286.41 345.72 291.317 343.735 295.727C341.861 300.027 339.105 303.721 335.466 306.808C331.828 309.895 327.417 312.265 322.235 313.919C317.053 315.573 311.21 316.4 304.705 316.4C297.097 316.4 290.371 315.353 284.528 313.258C278.794 311.053 273.998 308.076 270.139 304.327C266.28 300.468 263.358 296.003 261.374 290.931C259.389 285.749 258.397 280.126 258.397 274.062V272.1C258.397 270.443 259.74 269.1 261.397 269.1H277.228C278.885 269.1 280.228 270.443 280.228 272.1V273.069C280.228 280.015 282.212 285.583 286.182 289.773C290.261 293.853 296.546 295.892 305.035 295.892C311.651 295.892 316.557 294.459 319.755 291.592C322.952 288.726 324.551 285.308 324.551 281.338C324.551 279.464 324.22 277.7 323.558 276.046C322.897 274.282 321.739 272.738 320.085 271.415C318.432 269.982 316.171 268.714 313.305 267.612C310.438 266.509 306.799 265.572 302.389 264.8C296.546 263.808 291.198 262.54 286.347 260.996C281.496 259.342 277.251 257.192 273.612 254.546C270.084 251.9 267.328 248.592 265.343 244.623C263.358 240.654 262.366 235.803 262.366 230.069V229.077C262.366 224.336 263.303 219.981 265.178 216.012C267.162 211.932 269.864 208.404 273.282 205.427C276.81 202.45 280.999 200.135 285.851 198.481C290.812 196.827 296.325 196 302.389 196C309.225 196 315.289 196.992 320.582 198.977C325.874 200.851 330.284 203.442 333.812 206.75C337.451 210.058 340.152 213.862 341.916 218.162C343.79 222.462 344.728 226.982 344.728 231.723V234.677C344.728 236.334 343.385 237.677 341.728 237.677H325.897C324.24 237.677 322.897 236.334 322.897 234.677V233.708Z" fill="#FBFBFB"/>
<path fill-rule="evenodd" clip-rule="evenodd" d="M174.085 314.085C175.486 314.085 176.701 313.114 177.011 311.748L182.104 289.277L186.735 268.438L199.965 210.68C200.159 209.832 200.913 209.231 201.783 209.231C202.655 209.231 203.41 209.834 203.602 210.685L216.67 268.438L221.466 289.277L226.559 311.748C226.869 313.114 228.084 314.085 229.485 314.085H246.112C248.05 314.085 249.48 312.274 249.03 310.388L222.842 200.619C222.52 199.268 221.313 198.315 219.924 198.315H183.646C182.257 198.315 181.05 199.268 180.728 200.619L154.54 310.388C154.09 312.274 155.52 314.085 157.458 314.085H174.085Z" fill="#FBFBFB"/>
<path d="M116.052 301.788C116.154 302.578 116.827 303.169 117.623 303.169C118.498 303.169 119.208 302.46 119.208 301.585V201.315C119.208 199.659 120.551 198.315 122.208 198.315H138.038C139.695 198.315 141.038 199.659 141.038 201.315V311.085C141.038 312.741 139.695 314.085 138.038 314.085H101.006C99.4981 314.085 98.2244 312.965 98.031 311.469L84.9863 210.612C84.8842 209.822 84.2115 209.231 83.4151 209.231C82.5401 209.231 81.8308 209.94 81.8308 210.815V311.085C81.8308 312.741 80.4876 314.085 78.8308 314.085H63C61.3431 314.085 60 312.741 60 311.085V201.315C60 199.659 61.3431 198.315 63 198.315H100.032C101.54 198.315 102.814 199.435 103.007 200.931L116.052 301.788Z" fill="#FBFBFB"/>
</svg>
